<svg width="32" height="32" viewBox="0 0 32 32" fill="none" xmlns="http://www.w3.org/2000/svg">
  <rect width="32" height="32" rx="8" fill="#0070F3"/>
  <path d="M11 8H21C21.5523 8 22 8.44772 22 9V23C22 23.5523 21.5523 24 21 24H11C10.4477 24 10 23.5523 10 23V9C10 8.44772 10.4477 8 11 8Z" stroke="white" stroke-width="2" stroke-linecap="round" stroke-linejoin="round"/>
  <path d="M16 20C17.1046 20 18 19.1046 18 18C18 16.8954 17.1046 16 16 16C14.8954 16 14 16.8954 14 18C14 19.1046 14.8954 20 16 20Z" stroke="white" stroke-width="2" stroke-linecap="round" stroke-linejoin="round"/>
  <path d="M14 8V14" stroke="white" stroke-width="2" stroke-linecap="round" stroke-linejoin="round"/>
  <path d="M18 8V14" stroke="white" stroke-width="2" stroke-linecap="round" stroke-linejoin="round"/>
</svg>